<svg width="1800" height="3000" viewBox="0 0 1800 3000" fill="none" xmlns="http://www.w3.org/2000/svg">
<g clip-path="url(#clip0)">
<rect width="1800" height="3000" fill="white"/>
<circle cx="395" cy="500" r="299" stroke="#0045FE" stroke-opacity="0.2" stroke-width="2"/>
<circle cx="395" cy="500" r="749" stroke="#0045FE" stroke-opacity="0.2" stroke-width="2"/>
<circle cx="395" cy="500" r="199" stroke="#0045FE" stroke-opacity="0.2" stroke-width="2"/>
<circle cx="1445" cy="1766" r="299" stroke="#0045FE" stroke-opacity="0.2" stroke-width="2"/>
<circle cx="1445" cy="1766" r="200" fill="#0045FE" fill-opacity="0.2"/>
<circle cx="1270" cy="1591" r="25" fill="#0045FE" fill-opacity="0.2"/>
<circle cx="1387" cy="1913" r="25" fill="white"/>
<g filter="url(#filter0_d)">
<circle cx="817" cy="1117" r="35" fill="white"/>
<circle cx="817" cy="1117" r="34" stroke="#0045FE" stroke-opacity="0.1" stroke-width="2"/>
</g>
<g filter="url(#filter1_d)">
<circle cx="1139" cy="431" r="35" fill="white"/>
<circle cx="1139" cy="431" r="34" stroke="#0045FE" stroke-opacity="0.1" stroke-width="2"/>
</g>
<g filter="url(#filter2_d)">
<circle cx="1180" cy="1903" r="35" fill="white"/>
<circle cx="1180" cy="1903" r="34" stroke="#0045FE" stroke-opacity="0.1" stroke-width="2"/>
</g>
<g filter="url(#filter3_d)">
<circle cx="642" cy="665" r="35" fill="white"/>
<circle cx="642" cy="665" r="34" stroke="#0045FE" stroke-opacity="0.1" stroke-width="2"/>
</g>
<g filter="url(#filter4_d)">
<circle cx="522" cy="351" r="35" fill="white"/>
<circle cx="522" cy="351" r="34" stroke="#0045FE" stroke-opacity="0.1" stroke-width="2"/>
</g>
<g filter="url(#filter5_d)">
<circle cx="1447" cy="2691" r="35" fill="white"/>
<circle cx="1447" cy="2691" r="34" stroke="#0045FE" stroke-opacity="0.1" stroke-width="2"/>
</g>
<g filter="url(#filter6_d)">
<circle cx="1447" cy="1175" r="35" fill="white"/>
<circle cx="1447" cy="1175" r="34" stroke="#0045FE" stroke-opacity="0.1" stroke-width="2"/>
</g>
<g filter="url(#filter7_d)">
<circle cx="1352" cy="1480" r="35" fill="white"/>
<circle cx="1352" cy="1480" r="34" stroke="#0045FE" stroke-opacity="0.1" stroke-width="2"/>
</g>
<path d="M1139 421L1129 426L1139 431L1149 426L1139 421Z" stroke="#0045FE" stroke-width="2" stroke-linecap="round" stroke-linejoin="round"/>
<path d="M1129 436L1139 441L1149 436" stroke="#0045FE" stroke-width="2" stroke-linecap="round" stroke-linejoin="round"/>
<path d="M1129 431L1139 436L1149 431" stroke="#0045FE" stroke-width="2" stroke-linecap="round" stroke-linejoin="round"/>
<path d="M1455 2700V2698C1455 2696.94 1454.58 2695.92 1453.83 2695.17C1453.08 2694.42 1452.06 2694 1451 2694H1443C1441.94 2694 1440.92 2694.42 1440.17 2695.17C1439.42 2695.92 1439 2696.94 1439 2698V2700" stroke="#0045FE" stroke-width="2" stroke-linecap="round" stroke-linejoin="round"/>
<path d="M1447 2690C1449.21 2690 1451 2688.21 1451 2686C1451 2683.79 1449.21 2682 1447 2682C1444.79 2682 1443 2683.79 1443 2686C1443 2688.21 1444.79 2690 1447 2690Z" stroke="#0045FE" stroke-width="2" stroke-linecap="round" stroke-linejoin="round"/>
<g filter="url(#filter8_d)">
<circle cx="160" cy="1215" r="35" fill="white"/>
<circle cx="160" cy="1215" r="34" stroke="#0045FE" stroke-opacity="0.1" stroke-width="2"/>
</g>
<path d="M168 1224V1222C168 1220.94 167.579 1219.92 166.828 1219.17C166.078 1218.42 165.061 1218 164 1218H156C154.939 1218 153.922 1218.42 153.172 1219.17C152.421 1219.92 152 1220.94 152 1222V1224" stroke="#0045FE" stroke-width="2" stroke-linecap="round" stroke-linejoin="round"/>
<path d="M160 1214C162.209 1214 164 1212.21 164 1210C164 1207.79 162.209 1206 160 1206C157.791 1206 156 1207.79 156 1210C156 1212.21 157.791 1214 160 1214Z" stroke="#0045FE" stroke-width="2" stroke-linecap="round" stroke-linejoin="round"/>
<path d="M644 655H636C635.47 655 634.961 655.211 634.586 655.586C634.211 655.961 634 656.47 634 657V673C634 673.53 634.211 674.039 634.586 674.414C634.961 674.789 635.47 675 636 675H648C648.53 675 649.039 674.789 649.414 674.414C649.789 674.039 650 673.53 650 673V661L644 655Z" stroke="#0045FE" stroke-width="2" stroke-linecap="round" stroke-linejoin="round"/>
<path d="M644 655V661H650" stroke="#0045FE" stroke-width="2" stroke-linecap="round" stroke-linejoin="round"/>
<path d="M646 666H638" stroke="#0045FE" stroke-width="2" stroke-linecap="round" stroke-linejoin="round"/>
<path d="M646 670H638" stroke="#0045FE" stroke-width="2" stroke-linecap="round" stroke-linejoin="round"/>
<path d="M640 662H639H638" stroke="#0045FE" stroke-width="2" stroke-linecap="round" stroke-linejoin="round"/>
<path d="M517 361H514C513.47 361 512.961 360.789 512.586 360.414C512.211 360.039 512 359.53 512 359V352C512 351.47 512.211 350.961 512.586 350.586C512.961 350.211 513.47 350 514 350H517M524 348V344C524 343.204 523.684 342.441 523.121 341.879C522.559 341.316 521.796 341 521 341L517 350V361H528.28C528.762 361.005 529.23 360.836 529.598 360.524C529.965 360.212 530.208 359.777 530.28 359.3L531.66 350.3C531.704 350.013 531.684 349.721 531.603 349.442C531.523 349.164 531.382 348.906 531.192 348.688C531.002 348.469 530.766 348.294 530.502 348.175C530.237 348.057 529.95 347.997 529.66 348H524Z" stroke="#0045FE" stroke-width="2" stroke-linecap="round" stroke-linejoin="round"/>
<path d="M1179 1895H1172C1171.47 1895 1170.96 1895.21 1170.59 1895.59C1170.21 1895.96 1170 1896.47 1170 1897V1911C1170 1911.53 1170.21 1912.04 1170.59 1912.41C1170.96 1912.79 1171.47 1913 1172 1913H1186C1186.53 1913 1187.04 1912.79 1187.41 1912.41C1187.79 1912.04 1188 1911.53 1188 1911V1904" stroke="#0045FE" stroke-width="2" stroke-linecap="round" stroke-linejoin="round"/>
<path d="M1186.5 1893.5C1186.9 1893.1 1187.44 1892.88 1188 1892.88C1188.56 1892.88 1189.1 1893.1 1189.5 1893.5C1189.9 1893.9 1190.12 1894.44 1190.12 1895C1190.12 1895.56 1189.9 1896.1 1189.5 1896.5L1180 1906L1176 1907L1177 1903L1186.5 1893.5Z" stroke="#0045FE" stroke-width="2" stroke-linecap="round" stroke-linejoin="round"/>
<path d="M1356 1472H1358C1358.53 1472 1359.04 1472.21 1359.41 1472.59C1359.79 1472.96 1360 1473.47 1360 1474V1488C1360 1488.53 1359.79 1489.04 1359.41 1489.41C1359.04 1489.79 1358.53 1490 1358 1490H1346C1345.47 1490 1344.96 1489.79 1344.59 1489.41C1344.21 1489.04 1344 1488.53 1344 1488V1474C1344 1473.47 1344.21 1472.96 1344.59 1472.59C1344.96 1472.21 1345.47 1472 1346 1472H1348" stroke="#0045FE" stroke-width="2" stroke-linecap="round" stroke-linejoin="round"/>
<path d="M1355 1470H1349C1348.45 1470 1348 1470.45 1348 1471V1473C1348 1473.55 1348.45 1474 1349 1474H1355C1355.55 1474 1356 1473.55 1356 1473V1471C1356 1470.45 1355.55 1470 1355 1470Z" stroke="#0045FE" stroke-width="2" stroke-linecap="round" stroke-linejoin="round"/>
<path d="M1456.63 1167.61C1456.06 1167.1 1455.38 1166.7 1454.63 1166.42C1453.88 1166.14 1453.08 1166 1452.27 1166C1451.46 1166 1450.66 1166.14 1449.91 1166.42C1449.16 1166.7 1448.48 1167.1 1447.91 1167.61L1446.72 1168.67L1445.53 1167.61C1444.37 1166.58 1442.8 1166 1441.17 1166C1439.53 1166 1437.96 1166.58 1436.81 1167.61C1435.65 1168.64 1435 1170.04 1435 1171.5C1435 1172.96 1435.65 1174.36 1436.81 1175.39L1438 1176.45L1446.72 1184.23L1455.44 1176.45L1456.63 1175.39C1457.2 1174.88 1457.66 1174.27 1457.97 1173.61C1458.28 1172.94 1458.44 1172.22 1458.44 1171.5C1458.44 1170.78 1458.28 1170.06 1457.97 1169.4C1457.66 1168.73 1457.2 1168.12 1456.63 1167.61V1167.61Z" stroke="#0045FE" stroke-width="2" stroke-linecap="round" stroke-linejoin="round"/>
<g filter="url(#filter9_d)">
<circle cx="250" cy="640" r="35" fill="white"/>
<circle cx="250" cy="640" r="34" stroke="#0045FE" stroke-opacity="0.1" stroke-width="2"/>
</g>
<g filter="url(#filter10_d)">
<circle cx="285" cy="222" r="35" fill="white"/>
<circle cx="285" cy="222" r="34" stroke="#0045FE" stroke-opacity="0.1" stroke-width="2"/>
</g>
<path d="M250 650C255.523 650 260 645.523 260 640C260 634.477 255.523 630 250 630C244.477 630 240 634.477 240 640C240 645.523 244.477 650 250 650Z" stroke="#0045FE" stroke-width="2" stroke-linecap="round" stroke-linejoin="round"/>
<path d="M246 642C246 642 247.5 644 250 644C252.5 644 254 642 254 642" stroke="#0045FE" stroke-width="2" stroke-linecap="round" stroke-linejoin="round"/>
<path d="M247 637H247.01" stroke="#0045FE" stroke-width="2" stroke-linecap="round" stroke-linejoin="round"/>
<path d="M253 637H253.01" stroke="#0045FE" stroke-width="2" stroke-linecap="round" stroke-linejoin="round"/>
<path d="M825 1109L814 1120L809 1115" stroke="#0045FE" stroke-width="2" stroke-linecap="round" stroke-linejoin="round"/>
<path d="M286 212H279C278.47 212 277.961 212.211 277.586 212.586C277.211 212.961 277 213.47 277 214V230C277 230.53 277.211 231.039 277.586 231.414C277.961 231.789 278.47 232 279 232H291C291.53 232 292.039 231.789 292.414 231.414C292.789 231.039 293 230.53 293 230V219L286 212Z" stroke="#0045FE" stroke-width="2" stroke-linecap="round" stroke-linejoin="round"/>
<path d="M286 212V219H293" stroke="#0045FE" stroke-width="2" stroke-linecap="round" stroke-linejoin="round"/>
</g>
<defs>
<filter id="filter0_d" x="747" y="1047" width="170" height="170" filterUnits="userSpaceOnUse" color-interpolation-filters="sRGB">
<feFlood flood-opacity="0" result="BackgroundImageFix"/>
<feColorMatrix in="SourceAlpha" type="matrix" values="0 0 0 0 0 0 0 0 0 0 0 0 0 0 0 0 0 0 127 0"/>
<feOffset dx="15" dy="15"/>
<feGaussianBlur stdDeviation="25"/>
<feColorMatrix type="matrix" values="0 0 0 0 0 0 0 0 0 0 0 0 0 0 0 0 0 0 0.1 0"/>
<feBlend mode="normal" in2="BackgroundImageFix" result="effect1_dropShadow"/>
<feBlend mode="normal" in="SourceGraphic" in2="effect1_dropShadow" result="shape"/>
</filter>
<filter id="filter1_d" x="1069" y="361" width="170" height="170" filterUnits="userSpaceOnUse" color-interpolation-filters="sRGB">
<feFlood flood-opacity="0" result="BackgroundImageFix"/>
<feColorMatrix in="SourceAlpha" type="matrix" values="0 0 0 0 0 0 0 0 0 0 0 0 0 0 0 0 0 0 127 0"/>
<feOffset dx="15" dy="15"/>
<feGaussianBlur stdDeviation="25"/>
<feColorMatrix type="matrix" values="0 0 0 0 0 0 0 0 0 0 0 0 0 0 0 0 0 0 0.1 0"/>
<feBlend mode="normal" in2="BackgroundImageFix" result="effect1_dropShadow"/>
<feBlend mode="normal" in="SourceGraphic" in2="effect1_dropShadow" result="shape"/>
</filter>
<filter id="filter2_d" x="1110" y="1833" width="170" height="170" filterUnits="userSpaceOnUse" color-interpolation-filters="sRGB">
<feFlood flood-opacity="0" result="BackgroundImageFix"/>
<feColorMatrix in="SourceAlpha" type="matrix" values="0 0 0 0 0 0 0 0 0 0 0 0 0 0 0 0 0 0 127 0"/>
<feOffset dx="15" dy="15"/>
<feGaussianBlur stdDeviation="25"/>
<feColorMatrix type="matrix" values="0 0 0 0 0 0 0 0 0 0 0 0 0 0 0 0 0 0 0.1 0"/>
<feBlend mode="normal" in2="BackgroundImageFix" result="effect1_dropShadow"/>
<feBlend mode="normal" in="SourceGraphic" in2="effect1_dropShadow" result="shape"/>
</filter>
<filter id="filter3_d" x="572" y="595" width="170" height="170" filterUnits="userSpaceOnUse" color-interpolation-filters="sRGB">
<feFlood flood-opacity="0" result="BackgroundImageFix"/>
<feColorMatrix in="SourceAlpha" type="matrix" values="0 0 0 0 0 0 0 0 0 0 0 0 0 0 0 0 0 0 127 0"/>
<feOffset dx="15" dy="15"/>
<feGaussianBlur stdDeviation="25"/>
<feColorMatrix type="matrix" values="0 0 0 0 0 0 0 0 0 0 0 0 0 0 0 0 0 0 0.1 0"/>
<feBlend mode="normal" in2="BackgroundImageFix" result="effect1_dropShadow"/>
<feBlend mode="normal" in="SourceGraphic" in2="effect1_dropShadow" result="shape"/>
</filter>
<filter id="filter4_d" x="452" y="281" width="170" height="170" filterUnits="userSpaceOnUse" color-interpolation-filters="sRGB">
<feFlood flood-opacity="0" result="BackgroundImageFix"/>
<feColorMatrix in="SourceAlpha" type="matrix" values="0 0 0 0 0 0 0 0 0 0 0 0 0 0 0 0 0 0 127 0"/>
<feOffset dx="15" dy="15"/>
<feGaussianBlur stdDeviation="25"/>
<feColorMatrix type="matrix" values="0 0 0 0 0 0 0 0 0 0 0 0 0 0 0 0 0 0 0.1 0"/>
<feBlend mode="normal" in2="BackgroundImageFix" result="effect1_dropShadow"/>
<feBlend mode="normal" in="SourceGraphic" in2="effect1_dropShadow" result="shape"/>
</filter>
<filter id="filter5_d" x="1377" y="2621" width="170" height="170" filterUnits="userSpaceOnUse" color-interpolation-filters="sRGB">
<feFlood flood-opacity="0" result="BackgroundImageFix"/>
<feColorMatrix in="SourceAlpha" type="matrix" values="0 0 0 0 0 0 0 0 0 0 0 0 0 0 0 0 0 0 127 0"/>
<feOffset dx="15" dy="15"/>
<feGaussianBlur stdDeviation="25"/>
<feColorMatrix type="matrix" values="0 0 0 0 0 0 0 0 0 0 0 0 0 0 0 0 0 0 0.1 0"/>
<feBlend mode="normal" in2="BackgroundImageFix" result="effect1_dropShadow"/>
<feBlend mode="normal" in="SourceGraphic" in2="effect1_dropShadow" result="shape"/>
</filter>
<filter id="filter6_d" x="1377" y="1105" width="170" height="170" filterUnits="userSpaceOnUse" color-interpolation-filters="sRGB">
<feFlood flood-opacity="0" result="BackgroundImageFix"/>
<feColorMatrix in="SourceAlpha" type="matrix" values="0 0 0 0 0 0 0 0 0 0 0 0 0 0 0 0 0 0 127 0"/>
<feOffset dx="15" dy="15"/>
<feGaussianBlur stdDeviation="25"/>
<feColorMatrix type="matrix" values="0 0 0 0 0 0 0 0 0 0 0 0 0 0 0 0 0 0 0.1 0"/>
<feBlend mode="normal" in2="BackgroundImageFix" result="effect1_dropShadow"/>
<feBlend mode="normal" in="SourceGraphic" in2="effect1_dropShadow" result="shape"/>
</filter>
<filter id="filter7_d" x="1282" y="1410" width="170" height="170" filterUnits="userSpaceOnUse" color-interpolation-filters="sRGB">
<feFlood flood-opacity="0" result="BackgroundImageFix"/>
<feColorMatrix in="SourceAlpha" type="matrix" values="0 0 0 0 0 0 0 0 0 0 0 0 0 0 0 0 0 0 127 0"/>
<feOffset dx="15" dy="15"/>
<feGaussianBlur stdDeviation="25"/>
<feColorMatrix type="matrix" values="0 0 0 0 0 0 0 0 0 0 0 0 0 0 0 0 0 0 0.1 0"/>
<feBlend mode="normal" in2="BackgroundImageFix" result="effect1_dropShadow"/>
<feBlend mode="normal" in="SourceGraphic" in2="effect1_dropShadow" result="shape"/>
</filter>
<filter id="filter8_d" x="90" y="1145" width="170" height="170" filterUnits="userSpaceOnUse" color-interpolation-filters="sRGB">
<feFlood flood-opacity="0" result="BackgroundImageFix"/>
<feColorMatrix in="SourceAlpha" type="matrix" values="0 0 0 0 0 0 0 0 0 0 0 0 0 0 0 0 0 0 127 0"/>
<feOffset dx="15" dy="15"/>
<feGaussianBlur stdDeviation="25"/>
<feColorMatrix type="matrix" values="0 0 0 0 0 0 0 0 0 0 0 0 0 0 0 0 0 0 0.1 0"/>
<feBlend mode="normal" in2="BackgroundImageFix" result="effect1_dropShadow"/>
<feBlend mode="normal" in="SourceGraphic" in2="effect1_dropShadow" result="shape"/>
</filter>
<filter id="filter9_d" x="180" y="570" width="170" height="170" filterUnits="userSpaceOnUse" color-interpolation-filters="sRGB">
<feFlood flood-opacity="0" result="BackgroundImageFix"/>
<feColorMatrix in="SourceAlpha" type="matrix" values="0 0 0 0 0 0 0 0 0 0 0 0 0 0 0 0 0 0 127 0"/>
<feOffset dx="15" dy="15"/>
<feGaussianBlur stdDeviation="25"/>
<feColorMatrix type="matrix" values="0 0 0 0 0 0 0 0 0 0 0 0 0 0 0 0 0 0 0.1 0"/>
<feBlend mode="normal" in2="BackgroundImageFix" result="effect1_dropShadow"/>
<feBlend mode="normal" in="SourceGraphic" in2="effect1_dropShadow" result="shape"/>
</filter>
<filter id="filter10_d" x="215" y="152" width="170" height="170" filterUnits="userSpaceOnUse" color-interpolation-filters="sRGB">
<feFlood flood-opacity="0" result="BackgroundImageFix"/>
<feColorMatrix in="SourceAlpha" type="matrix" values="0 0 0 0 0 0 0 0 0 0 0 0 0 0 0 0 0 0 127 0"/>
<feOffset dx="15" dy="15"/>
<feGaussianBlur stdDeviation="25"/>
<feColorMatrix type="matrix" values="0 0 0 0 0 0 0 0 0 0 0 0 0 0 0 0 0 0 0.1 0"/>
<feBlend mode="normal" in2="BackgroundImageFix" result="effect1_dropShadow"/>
<feBlend mode="normal" in="SourceGraphic" in2="effect1_dropShadow" result="shape"/>
</filter>
<clipPath id="clip0">
<rect width="1800" height="3000" fill="white"/>
</clipPath>
</defs>
</svg>
